<?xml version="1.0" encoding="utf-8"?>
<!-- Generator: Adobe Illustrator 21.1.0, SVG Export Plug-In . SVG Version: 6.00 Build 0)  -->
<svg version="1.1" xmlns="http://www.w3.org/2000/svg" xmlns:xlink="http://www.w3.org/1999/xlink" x="0px" y="0px"
	 viewBox="0 0 2560 1600" style="enable-background:new 0 0 2560 1600;" xml:space="preserve">
<style type="text/css">
	.st0{clip-path:url(#SVGID_7_);}
	.st1{clip-path:url(#SVGID_8_);}
	.st2{clip-path:url(#SVGID_9_);}
	.st3{clip-path:url(#SVGID_10_);}
	.st4{clip-path:url(#SVGID_11_);}
	.st5{clip-path:url(#SVGID_12_);fill:#00FFFF;}
	.st6{fill:none;stroke:#000000;stroke-width:7;stroke-miterlimit:10;}
	.st7{fill:#00FFFF;}
	.st8{font-family:'Handwriting-Dakota';}
	.st9{font-size:191.2453px;}
	.st10{display:none;}
	.st11{display:inline;}
	.st12{font-size:127.4969px;}
	.st13{clip-path:url(#SVGID_14_);}
	.st14{clip-path:url(#SVGID_21_);}
	.st15{clip-path:url(#SVGID_22_);}
	.st16{clip-path:url(#SVGID_23_);}
	.st17{clip-path:url(#SVGID_24_);}
	.st18{clip-path:url(#SVGID_25_);}
	.st19{clip-path:url(#SVGID_26_);fill:#00FFFF;}
	.st20{display:inline;fill:none;stroke:#000000;stroke-width:7;stroke-miterlimit:10;}
</style>
<g id="Layer_1">
	<g>
		<g>
			<g>
				<g>
					<g>
						<g>
							<g>
								<g>
									<g>
										<defs>
											<rect id="SVGID_1_" x="979.6" y="421" width="665.1" height="483.4"/>
										</defs>
										<defs>
											<rect id="SVGID_2_" x="979.6" y="421" width="665.1" height="483.4"/>
										</defs>
										<defs>
											<rect id="SVGID_3_" x="979.6" y="421" width="665.1" height="483.4"/>
										</defs>
										<defs>
											<rect id="SVGID_4_" x="979.6" y="421" width="665.1" height="483.4"/>
										</defs>
										<defs>
											<rect id="SVGID_5_" x="979.6" y="421" width="665.1" height="483.4"/>
										</defs>
										<defs>
											<rect id="SVGID_6_" x="979.6" y="421" width="665.1" height="483.4"/>
										</defs>
										<clipPath id="SVGID_7_">
											<use xlink:href="#SVGID_1_"  style="overflow:visible;"/>
										</clipPath>
										<clipPath id="SVGID_8_" class="st0">
											<use xlink:href="#SVGID_2_"  style="overflow:visible;"/>
										</clipPath>
										<clipPath id="SVGID_9_" class="st1">
											<use xlink:href="#SVGID_3_"  style="overflow:visible;"/>
										</clipPath>
										<clipPath id="SVGID_10_" class="st2">
											<use xlink:href="#SVGID_4_"  style="overflow:visible;"/>
										</clipPath>
										<clipPath id="SVGID_11_" class="st3">
											<use xlink:href="#SVGID_5_"  style="overflow:visible;"/>
										</clipPath>
										<clipPath id="SVGID_12_" class="st4">
											<use xlink:href="#SVGID_6_"  style="overflow:visible;"/>
										</clipPath>
										<polygon class="st5" points="1533,782.3 1570.1,482 1640.8,467.2 1644.7,468 1579.4,819.5 1381.1,883.2 1359,838 
											1358.7,836.9 1532.9,782.3 										"/>
										<polygon class="st5" points="1570.1,482 1533,782.3 1532.9,782.3 1358.7,836.9 1312.5,851.3 1311.7,851 1290.5,500.7 
											1576.9,426.3 										"/>
										<polygon class="st5" points="1311.7,851 1315,904.5 1263.6,885.9 1288,843.4 1288.7,841.5 										"/>
										<polygon class="st5" points="1312.5,851.3 1358.7,836.9 1359,838 1381.1,883.2 1315,904.5 1311.7,851 										"/>
										<polygon class="st5" points="1290.5,500.7 1311.7,851 1288.7,841.5 1079.9,755.7 1027.5,456.9 1021.2,421 										"/>
										<polygon class="st5" points="1288.7,841.5 1288,843.4 1263.6,885.9 1039,799.9 1038.2,800.1 979.6,439.6 1021.2,458.2 
											1027.5,456.9 1079.9,755.7 										"/>
									</g>
								</g>
							</g>
							<g>
								<polyline class="st6" points="1038.3,800.9 1038.2,800.1 979.6,439.6 								"/>
							</g>
							<g>
								<g>
									<g>
										<polyline class="st6" points="1021.2,421 1027.5,456.9 1079.9,755.7 										"/>
									</g>
									<g>
										<polyline class="st6" points="1079.9,755.7 1288.7,841.5 1311.7,851 1312.5,851.3 										"/>
									</g>
									<g>
										<g>
											<g>
												<line class="st6" x1="1021.2" y1="421" x2="1290.5" y2="500.7"/>
											</g>
											<g>
												<polyline class="st6" points="1640.8,467.2 1570.1,482 1569.6,482.1 												"/>
											</g>
											<g>
												<line class="st6" x1="1263.6" y1="885.9" x2="1039" y2="799.9"/>
											</g>
											<g>
												<line class="st6" x1="979.6" y1="439.6" x2="1021.2" y2="458.2"/>
											</g>
											<g>
												<line class="st6" x1="1263.6" y1="885.9" x2="1288" y2="843.4"/>
											</g>
											<g>
												<line class="st6" x1="1263.6" y1="885.9" x2="1315" y2="904.5"/>
											</g>
											<g>
												<polyline class="st6" points="1315,904.5 1311.7,851 1290.5,500.7 												"/>
											</g>
											<g>
												<polyline class="st6" points="1315,904.5 1381.1,883.2 1579.4,819.5 												"/>
											</g>
											<g>
												<polyline class="st6" points="1645.5,463.5 1644.7,468 1579.4,819.5 												"/>
											</g>
											<g>
												<g>
													<g>
														<line class="st6" x1="1576.9" y1="426.3" x2="1290.5" y2="500.7"/>
														<polyline class="st6" points="1576.9,426.3 1570.1,482 1533.1,782.3 1532.9,783.6 														"/>
													</g>
													<g>
														<polyline class="st6" points="1312.5,851.3 1358.7,836.9 1532.9,782.3 														"/>
													</g>
													<g>
														<line class="st6" x1="1359" y1="838" x2="1381.1" y2="883.2"/>
													</g>
												</g>
											</g>
										</g>
									</g>
								</g>
							</g>
						</g>
					</g>
				</g>
			</g>
		</g>
	</g>
	<g>
		<text transform="matrix(0.9217 0 0 1 1113.6372 1077.8667)" class="st7 st8 st9">BVM</text>
	</g>
</g>
<g id="Layer_2" class="st10">
	<g class="st11">
		<text transform="matrix(0.9217 0 0 1 859.4976 927.8667)" class="st7 st8 st12"> </text>
	</g>
	<g class="st11">
		<defs>
			<rect id="SVGID_13_" x="813.6" y="271" width="665.1" height="483.4"/>
		</defs>
		<clipPath id="SVGID_14_">
			<use xlink:href="#SVGID_13_"  style="overflow:visible;"/>
		</clipPath>
		<g class="st13">
			<g>
				<defs>
					<rect id="SVGID_15_" x="813.6" y="271" width="665.1" height="483.4"/>
				</defs>
				<defs>
					<rect id="SVGID_16_" x="813.6" y="271" width="665.1" height="483.4"/>
				</defs>
				<defs>
					<rect id="SVGID_17_" x="813.6" y="271" width="665.1" height="483.4"/>
				</defs>
				<defs>
					<rect id="SVGID_18_" x="813.6" y="271" width="665.1" height="483.4"/>
				</defs>
				<defs>
					<rect id="SVGID_19_" x="813.6" y="271" width="665.1" height="483.4"/>
				</defs>
				<defs>
					<polygon id="SVGID_20_" points="813.6,271 1478.7,271 1478.7,754.4 1149,754.4 813.6,754.4 					"/>
				</defs>
				<clipPath id="SVGID_21_">
					<use xlink:href="#SVGID_15_"  style="overflow:visible;"/>
				</clipPath>
				<clipPath id="SVGID_22_" class="st14">
					<use xlink:href="#SVGID_16_"  style="overflow:visible;"/>
				</clipPath>
				<clipPath id="SVGID_23_" class="st15">
					<use xlink:href="#SVGID_17_"  style="overflow:visible;"/>
				</clipPath>
				<clipPath id="SVGID_24_" class="st16">
					<use xlink:href="#SVGID_18_"  style="overflow:visible;"/>
				</clipPath>
				<clipPath id="SVGID_25_" class="st17">
					<use xlink:href="#SVGID_19_"  style="overflow:visible;"/>
				</clipPath>
				<clipPath id="SVGID_26_" class="st18">
					<use xlink:href="#SVGID_20_"  style="overflow:visible;"/>
				</clipPath>
				<polygon class="st19" points="1367,632.3 1404.1,332 1474.8,317.2 1478.7,318 1413.4,669.5 1215.1,733.2 1193,688 1192.7,686.9 
					1366.9,632.3 				"/>
				<polygon class="st19" points="1404.1,332 1367,632.3 1366.9,632.3 1192.7,686.9 1146.5,701.3 1145.7,701 1124.5,350.7 
					1410.9,276.3 				"/>
				<polygon class="st19" points="1145.7,701 1149,754.5 1097.6,735.9 1122,693.4 1122.7,691.5 				"/>
				<polygon class="st19" points="1146.5,701.3 1192.7,686.9 1193,688 1215.1,733.2 1149,754.5 1145.7,701 				"/>
				<polygon class="st19" points="1124.5,350.7 1145.7,701 1122.7,691.5 913.9,605.7 861.5,306.9 855.2,271 				"/>
				<polygon class="st19" points="1122.7,691.5 1122,693.4 1097.6,735.9 873,649.9 861.5,306.9 913.9,605.7 				"/>
			</g>
		</g>
	</g>
	<polygon class="st20" points="1124.5,350.7 855.2,271 913.9,605.7 1120.2,689.9 1097.6,735.9 1149,754.4 1214.1,737.7 1193,688 
		1193,688 1367,632.3 1410.9,276.3 	"/>
	<line class="st20" x1="1149" y1="754.4" x2="1124.5" y2="350.7"/>
	<polyline class="st20" points="1097.6,735.9 1120.2,689.9 1145.7,701 1193,688 	"/>
</g>
</svg>
